<svg width="43" height="43" viewBox="0 0 43 43" fill="none" xmlns="http://www.w3.org/2000/svg">
<path d="M43 9.7825C42.9758 8.85493 42.9041 7.92921 42.785 7.009C42.6245 6.20302 42.3569 5.4221 41.9895 4.687C41.6052 3.88958 41.0891 3.16271 40.463 2.537C39.8311 1.91824 39.1055 1.40307 38.313 1.0105C37.5769 0.650255 36.796 0.389953 35.991 0.2365C35.0795 0.0999737 34.1604 0.0209842 33.239 0H9.7825C8.85493 0.0241583 7.92921 0.0959192 7.009 0.215C6.20302 0.375537 5.4221 0.643072 4.687 1.0105C3.88958 1.39478 3.16271 1.91086 2.537 2.537C1.91824 3.16891 1.40307 3.8945 1.0105 4.687C0.650255 5.42308 0.389953 6.20399 0.2365 7.009C0.0999737 7.92046 0.0209842 8.83961 0 9.761C0 10.1695 0 10.75 0 10.922V32.078C0 32.3145 0 32.8305 0 33.2175C0.0241583 34.1451 0.0959192 35.0708 0.215 35.991C0.375537 36.797 0.643072 37.5779 1.0105 38.313C1.39478 39.1104 1.91086 39.8373 2.537 40.463C3.16891 41.0818 3.8945 41.5969 4.687 41.9895C5.42308 42.3497 6.20399 42.61 7.009 42.7635C7.92046 42.9 8.83961 42.979 9.761 43H33.2175C34.1451 42.9758 35.0708 42.9041 35.991 42.785C36.797 42.6245 37.5779 42.3569 38.313 41.9895C39.1104 41.6052 39.8373 41.0891 40.463 40.463C41.0818 39.8311 41.5969 39.1055 41.9895 38.313C42.3497 37.5769 42.61 36.796 42.7635 35.991C42.9 35.0795 42.979 34.1604 43 33.239C43 32.8305 43 32.3145 43 32.078V10.922C43 10.75 43 10.1695 43 9.7825ZM21.9945 36.55C19.4125 36.5373 16.8756 35.8716 14.62 34.615L6.45 36.765L8.6 28.767C7.21349 26.4374 6.47147 23.7809 6.45 21.07C6.45856 18.0233 7.36849 15.0472 9.06517 12.5167C10.7619 9.9861 13.1694 8.01419 15.9847 6.84929C18.7999 5.68439 21.8969 5.37859 24.8856 5.97042C27.8743 6.56224 30.621 8.02522 32.7798 10.1751C34.9387 12.325 36.4131 15.0656 37.0173 18.0518C37.6215 21.038 37.3286 24.1362 36.1754 26.9563C35.0223 29.7763 33.0604 32.1921 30.5369 33.8993C28.0134 35.6065 25.0411 36.5288 21.9945 36.55V36.55ZM21.9945 8.3205C19.7151 8.34658 17.4833 8.97621 15.5263 10.1453C13.5694 11.3144 11.9572 12.9811 10.8538 14.9759C9.7505 16.9706 9.19544 19.2221 9.24518 21.5011C9.29492 23.7802 9.94768 26.0053 11.137 27.95L11.438 28.4445L10.148 33.153L15.05 31.82L15.523 32.0995C17.4786 33.2514 19.7035 33.8669 21.973 33.884V33.884C25.3943 33.884 28.6755 32.5249 31.0947 30.1057C33.5139 27.6865 34.873 24.4053 34.873 20.984C34.873 17.5627 33.5139 14.2815 31.0947 11.8623C28.6755 9.4431 25.3943 8.084 21.973 8.084L21.9945 8.3205ZM29.5195 26.6385C29.2379 27.1082 28.8608 27.5136 28.4127 27.8284C27.9646 28.1432 27.4554 28.3604 26.918 28.466C26.1151 28.6128 25.2884 28.5611 24.51 28.3155C23.7776 28.0865 23.0596 27.8137 22.36 27.4985C19.702 26.1648 17.4353 24.1647 15.781 21.6935C14.8821 20.5486 14.3366 19.1663 14.2115 17.716C14.1987 17.1135 14.3127 16.5151 14.546 15.9595C14.7793 15.404 15.1269 14.9036 15.566 14.491C15.6954 14.3443 15.854 14.2265 16.0318 14.145C16.2096 14.0635 16.4025 14.0203 16.598 14.018H17.2C17.4365 14.018 17.759 14.018 18.06 14.6845C18.361 15.351 19.1565 17.3505 19.264 17.544C19.3168 17.6471 19.3444 17.7614 19.3444 17.8772C19.3444 17.9931 19.3168 18.1074 19.264 18.2105C19.169 18.4441 19.0384 18.6617 18.877 18.8555C18.6835 19.092 18.4685 19.3715 18.2965 19.5435C18.1245 19.7155 17.9095 19.9305 18.1245 20.3175C18.7095 21.3048 19.4336 22.2026 20.2745 22.9835C21.1902 23.7927 22.2372 24.4398 23.3705 24.897C23.7575 25.0905 23.994 25.069 24.209 24.897C24.424 24.725 25.1765 23.779 25.4345 23.392C25.6925 23.005 25.9505 23.0695 26.2945 23.1985C26.6385 23.3275 28.552 24.252 28.939 24.4455C29.326 24.639 29.5625 24.725 29.67 24.897C29.7632 25.4597 29.7114 26.0369 29.5195 26.574V26.6385Z" fill="#2D2B2C"/>
</svg>
