<svg width="43" height="43" viewBox="0 0 43 43" fill="none" xmlns="http://www.w3.org/2000/svg">
<path d="M21.5 16.168C20.4454 16.168 19.4145 16.4807 18.5377 17.0666C17.6609 17.6525 16.9774 18.4852 16.5739 19.4595C16.1703 20.4338 16.0647 21.5059 16.2705 22.5402C16.4762 23.5745 16.984 24.5246 17.7297 25.2703C18.4754 26.016 19.4255 26.5238 20.4598 26.7295C21.4941 26.9353 22.5662 26.8297 23.5405 26.4261C24.5148 26.0226 25.3475 25.3391 25.9334 24.4623C26.5193 23.5855 26.832 22.5546 26.832 21.5C26.832 20.7998 26.6941 20.1064 26.4261 19.4595C26.1582 18.8126 25.7654 18.2248 25.2703 17.7297C24.7752 17.2346 24.1874 16.8418 23.5405 16.5739C22.8936 16.3059 22.2002 16.168 21.5 16.168V16.168ZM42.8495 10.9005C42.8382 9.24018 42.5325 7.59503 41.9465 6.0415C41.515 4.90471 40.8473 3.87235 39.9875 3.01255C39.1276 2.15275 38.0953 1.48504 36.9585 1.0535C35.405 0.467547 33.7598 0.161811 32.0995 0.1505C29.326 -1.44169e-07 28.509 0 21.5 0C14.491 0 13.674 -1.44169e-07 10.9005 0.1505C9.24018 0.161811 7.59503 0.467547 6.0415 1.0535C4.90471 1.48504 3.87235 2.15275 3.01255 3.01255C2.15275 3.87235 1.48504 4.90471 1.0535 6.0415C0.467547 7.59503 0.161811 9.24018 0.1505 10.9005C-1.44169e-07 13.674 0 14.491 0 21.5C0 28.509 -1.44169e-07 29.326 0.1505 32.0995C0.173642 33.7657 0.478965 35.4159 1.0535 36.98C1.48313 38.1116 2.15028 39.138 3.01 39.99C3.86612 40.855 4.90069 41.5227 6.0415 41.9465C7.59503 42.5325 9.24018 42.8382 10.9005 42.8495C13.674 43 14.491 43 21.5 43C28.509 43 29.326 43 32.0995 42.8495C33.7598 42.8382 35.405 42.5325 36.9585 41.9465C38.0993 41.5227 39.1339 40.855 39.99 39.99C40.8497 39.138 41.5169 38.1116 41.9465 36.98C42.5319 35.4189 42.8376 33.7668 42.8495 32.0995C43 29.326 43 28.509 43 21.5C43 14.491 43 13.674 42.8495 10.9005V10.9005ZM37.3885 28.1005C37.3195 29.4273 37.0363 30.7342 36.55 31.9705C36.1326 33.0018 35.5121 33.9387 34.7254 34.7254C33.9387 35.5121 33.0018 36.1326 31.9705 36.55C30.7225 37.0092 29.4083 37.2634 28.079 37.3025C26.3805 37.3025 25.929 37.3025 21.5 37.3025C17.071 37.3025 16.6195 37.3025 14.921 37.3025C13.5917 37.2634 12.2775 37.0092 11.0295 36.55C9.96332 36.1538 9.0005 35.5217 8.213 34.701C7.43398 33.9297 6.83236 32.9979 6.45 31.9705C5.98895 30.7238 5.7418 29.4081 5.719 28.079C5.719 26.3805 5.719 25.929 5.719 21.5C5.719 17.071 5.719 16.6195 5.719 14.921C5.7418 13.5919 5.98895 12.2763 6.45 11.0295C6.84621 9.96332 7.47829 9.0005 8.299 8.213C9.07372 7.43819 10.0045 6.8372 11.0295 6.45C12.2775 5.99077 13.5917 5.73665 14.921 5.6975V5.6975C16.6195 5.6975 17.071 5.6975 21.5 5.6975C25.929 5.6975 26.3805 5.6975 28.079 5.6975C29.4083 5.73665 30.7225 5.99077 31.9705 6.45C33.0367 6.84621 33.9995 7.47829 34.787 8.299C35.566 9.07031 36.1676 10.0021 36.55 11.0295C37.0092 12.2775 37.2634 13.5917 37.3025 14.921C37.3025 16.6195 37.3025 17.071 37.3025 21.5C37.3025 25.929 37.453 26.3805 37.3885 28.079V28.1005ZM33.9485 12.1045C33.6925 11.41 33.2889 10.7793 32.7655 10.256C32.2422 9.73259 31.6115 9.32899 30.917 9.073C29.9634 8.74246 28.9591 8.58235 27.95 8.6C26.273 8.6 25.8 8.6 21.5 8.6C17.2 8.6 16.727 8.6 15.05 8.6C14.0358 8.60991 13.0313 8.79916 12.083 9.159C11.3991 9.40336 10.7751 9.79048 10.2525 10.2946C9.72977 10.7988 9.32038 11.4084 9.0515 12.083C8.73927 13.0405 8.58673 14.0429 8.6 15.05C8.6 16.727 8.6 17.2 8.6 21.5C8.6 25.8 8.6 26.273 8.6 27.95C8.62132 28.9631 8.8102 29.9656 9.159 30.917C9.41499 31.6115 9.81859 32.2422 10.342 32.7655C10.8653 33.2889 11.496 33.6925 12.1905 33.9485C13.1078 34.2859 14.0732 34.4746 15.05 34.5075V34.5075C16.727 34.5075 17.2 34.5075 21.5 34.5075C25.8 34.5075 26.273 34.5075 27.95 34.5075C28.9642 34.4976 29.9687 34.3083 30.917 33.9485C31.6115 33.6925 32.2422 33.2889 32.7655 32.7655C33.2889 32.2422 33.6925 31.6115 33.9485 30.917C34.3083 29.9687 34.4976 28.9642 34.5075 27.95C34.5075 26.273 34.5075 25.8 34.5075 21.5C34.5075 17.2 34.5075 16.727 34.5075 15.05C34.5081 14.0348 34.3185 13.0284 33.9485 12.083V12.1045ZM21.5 29.713C20.4225 29.713 19.3555 29.5004 18.3603 29.0874C17.365 28.6744 16.4611 28.0691 15.7001 27.3062C14.9392 26.5432 14.3363 25.6377 13.9259 24.6414C13.5155 23.645 13.3057 22.5775 13.3085 21.5V21.5C13.3085 19.8747 13.7907 18.286 14.6941 16.9349C15.5976 15.5838 16.8815 14.5311 18.3835 13.9101C19.8855 13.2892 21.538 13.1278 23.1317 13.4464C24.7255 13.7651 26.1888 14.5494 27.3366 15.7002C28.4843 16.8509 29.2648 18.3164 29.5793 19.9109C29.8938 21.5055 29.7281 23.1576 29.1031 24.6579C28.4782 26.1583 27.4222 27.4395 26.0687 28.3393C24.7153 29.2392 23.1253 29.7173 21.5 29.713V29.713ZM30.1 14.8995C29.6247 14.8492 29.1849 14.6248 28.8652 14.2695C28.5456 13.9142 28.3687 13.4532 28.3687 12.9753C28.3687 12.4973 28.5456 12.0363 28.8652 11.681C29.1849 11.3257 29.6247 11.1013 30.1 11.051V11.051C30.5753 11.1013 31.0151 11.3257 31.3348 11.681C31.6544 12.0363 31.8313 12.4973 31.8313 12.9753C31.8313 13.4532 31.6544 13.9142 31.3348 14.2695C31.0151 14.6248 30.5753 14.8492 30.1 14.8995Z" fill="#2D2B2C"/>
</svg>
