<svg width="43" height="43" viewBox="0 0 43 43" fill="none" xmlns="http://www.w3.org/2000/svg">
<path d="M28.1068 0H14.9156C2.86662 0 0 2.86662 0 14.8932V28.0844C0 40.1333 2.84432 43 14.8932 43H28.0844C40.1334 43 43 40.1557 43 28.1067V14.9156C43 2.86662 40.1557 0 28.1068 0ZM34.7135 30.6822H31.5781C30.3912 30.6822 30.0328 29.7192 27.9053 27.5916C26.0463 25.8 25.2625 25.576 24.7922 25.576C24.1428 25.576 23.9635 25.7551 23.9635 26.651V29.4729C23.9635 30.2344 23.7172 30.6822 21.724 30.6822C19.7898 30.5523 17.9142 29.9647 16.2516 28.9679C14.589 27.9711 13.1869 26.5936 12.1609 24.9489C9.72522 21.9172 8.03048 18.359 7.21151 14.5572C7.21151 14.0869 7.39063 13.6614 8.28651 13.6614H11.4219C12.2281 13.6614 12.5193 14.0197 12.8328 14.8484C14.3557 19.3276 16.9537 23.2244 18.0063 23.2244C18.4094 23.2244 18.5885 23.0453 18.5885 22.0375V17.4239C18.4541 15.3188 17.3344 15.1395 17.3344 14.3781C17.3491 14.1772 17.4416 13.99 17.5921 13.8562C17.7426 13.7224 17.9394 13.6525 18.1406 13.6614H23.0678C23.7396 13.6614 23.9635 13.9973 23.9635 14.8036V21.0297C23.9635 21.7016 24.2547 21.9254 24.4563 21.9254C24.8594 21.9254 25.1729 21.7016 25.9119 20.9625C27.5001 19.0257 28.7978 16.868 29.7641 14.5572C29.8627 14.2792 30.0496 14.0411 30.2963 13.8793C30.5431 13.7175 30.8359 13.641 31.1303 13.6614H34.2656C35.2063 13.6614 35.4078 14.1317 35.2063 14.8036C34.0654 17.3584 32.6539 19.7836 30.9959 22.0375C30.6599 22.5526 30.5256 22.8213 30.9959 23.426C31.3094 23.8963 32.4068 24.8145 33.1459 25.6879C34.2209 26.7602 35.1135 28.0009 35.7885 29.3609C36.0572 30.2344 35.6094 30.6822 34.7135 30.6822V30.6822Z" fill="#2D2B2C"/>
</svg>
